<svg xmlns="http://www.w3.org/2000/svg" width="17" height="23" viewBox="0 0 17 23">
  <defs>
    <style>
      .cls-1 {
        fill: #8c7ae2;
        fill-rule: evenodd;
      }
    </style>
  </defs>
  <path id="address.svg" class="cls-1" d="M1041.83,3771.63a1.062,1.062,0,0,0,.85-0.41c0.78-1.01,7.65-9.96,7.65-14.23a8.5,8.5,0,0,0-16.99,0c0,4.27,6.87,13.22,7.65,14.23A1.056,1.056,0,0,0,1041.83,3771.63Zm0-20.92a6.338,6.338,0,0,1,6.38,6.28c0,2.66-4.04,8.68-6.38,11.84-2.33-3.16-6.37-9.18-6.37-11.84A6.336,6.336,0,0,1,1041.83,3750.71Zm4.25,6.28a4.246,4.246,0,1,0-4.25,4.18A4.221,4.221,0,0,0,1046.08,3756.99Zm-6.37,0a2.125,2.125,0,1,1,2.12,2.09A2.1,2.1,0,0,1,1039.71,3756.99Z" transform="translate(-1033.34 -3748.63)"/>
</svg>
