<svg xmlns="http://www.w3.org/2000/svg" width="19.37" height="14.56" viewBox="0 0 19.37 14.56">
  <defs>
    <style>
      .cls-1 {
        fill: #8c7ae2;
        fill-rule: evenodd;
      }
    </style>
  </defs>
  <path id="envelope.svg" class="cls-1" d="M1048.78,3840.2a1.81,1.81,0,0,1,1.81,1.81v10.91a1.81,1.81,0,0,1-1.81,1.82h-15.74a1.72,1.72,0,0,1-1.29-.53,1.758,1.758,0,0,1-.53-1.29v-10.91a1.752,1.752,0,0,1,.53-1.28,1.72,1.72,0,0,1,1.29-.53h15.74Zm0,1.81h-15.74v1.56q1.32,1.05,5.11,4.01l0.34,0.31a8.743,8.743,0,0,0,1.21.91,1.739,1.739,0,0,0,2.42,0,10.141,10.141,0,0,0,1.21-.91l0.34-.31c2.52-1.94,4.23-3.28,5.11-4.01v-1.56Zm-15.74,10.91h15.74v-7.04l-4.39,3.48a11.494,11.494,0,0,1-1.55,1.14,3.87,3.87,0,0,1-1.93.61,4.064,4.064,0,0,1-1.97-.61,14.762,14.762,0,0,1-1.55-1.14l-4.35-3.48v7.04Z" transform="translate(-1031.22 -3840.19)"/>
</svg>
