<svg xmlns="http://www.w3.org/2000/svg" width="138" height="138" viewBox="0 0 138 138">
  <defs>
    <style>
      .cls-1 {
        fill: #fff;
        fill-rule: evenodd;
        opacity: 0.1;
      }
    </style>
  </defs>
  <path id="phone-big.svg" class="cls-1" d="M1331.72,2381.99h-0.31a79.875,79.875,0,0,1-30.81-7.18,5.382,5.382,0,0,1,4.2-9.91,0.133,0.133,0,0,1,.07.03,69.629,69.629,0,0,0,26.59,6.25h0.25a33.037,33.037,0,0,0,24-8.74h0.05a9.722,9.722,0,0,0-.49-13.52c-14.48-13.93-21.31-12.92-27.64-6.76l-10.05,9.98a5.474,5.474,0,0,1-5.98,1.11,110.021,110.021,0,0,1-29.41-21.66l-0.71-.74a108.827,108.827,0,0,1-21.66-29.38,5.359,5.359,0,0,1,1.09-5.98l9.99-10.07c6.17-6.34,7.18-13.15-6.77-27.62a9.739,9.739,0,0,0-13.51-.51l-0.04.04a33.319,33.319,0,0,0-8.73,24.28c0.09,19.36,11.07,41.84,29.36,60.15a0.066,0.066,0,0,1,.05.04,119.734,119.734,0,0,0,11.86,10.3,5.389,5.389,0,0,1-6.47,8.62c-0.02-.01-0.04-0.03-0.07-0.05-0.01,0-.01-0.01-0.02-0.01a132.962,132.962,0,0,1-12.88-11.18,0.055,0.055,0,0,0-.03-0.05h-0.01c-20.3-20.32-32.47-45.61-32.59-67.77a43.773,43.773,0,0,1,12-32.05c0.07-.05.14-0.14,0.22-0.19l0.15-.14a20.5,20.5,0,0,1,28.46,1.02,50.267,50.267,0,0,1,13.18,19.86,22.218,22.218,0,0,1-6.47,22.81h-0.03l-7.22,7.31a108.048,108.048,0,0,0,17.76,22.94l0.71,0.74a108.179,108.179,0,0,0,22.97,17.75l7.29-7.22,0.03-.04a22.241,22.241,0,0,1,22.81-6.44,49.432,49.432,0,0,1,19.84,13.15,20.509,20.509,0,0,1,1.03,28.46l-0.14.18c-0.07.05-.13,0.14-0.2,0.19A43.563,43.563,0,0,1,1331.72,2381.99Zm3.29-78.95a5.387,5.387,0,0,0,3.64-6.68c0-.01-0.01-0.02-0.01-0.03l-0.07-.24a30.981,30.981,0,0,0-21.94-21.7,5.391,5.391,0,1,0-2.95,10.37,0.637,0.637,0,0,0,.07.02,18.878,18.878,0,0,1,9.25,5.29,19.383,19.383,0,0,1,5.23,9.06l0.08,0.28a5.391,5.391,0,0,0,5.17,3.86,6.082,6.082,0,0,0,1.52-.23h0.01Zm28.32,6.76a59.608,59.608,0,0,0-59.17-60.05h-0.89a5.381,5.381,0,0,0,0,10.76h0.27a48.885,48.885,0,0,1,49.01,48.77v0.47a5.429,5.429,0,0,0,5.37,5.43h0.03a5.373,5.373,0,0,0,5.38-5.37v-0.01h0Z" transform="translate(-1231.03 -2244.03)"/>
</svg>
