<svg xmlns="http://www.w3.org/2000/svg" width="16" height="16" viewBox="0 0 16 16">
  <defs>
    <style>
      .cls-1 {
        fill: #8c7ae2;
        fill-rule: evenodd;
      }
    </style>
  </defs>
  <path id="phone-icon.svg" class="cls-1" d="M1448.67,109h-0.04a9.259,9.259,0,0,1-3.57-.831,0.625,0.625,0,1,1,.49-1.149v0a8.085,8.085,0,0,0,3.08.725h0.03a3.85,3.85,0,0,0,2.79-1.013h0a1.122,1.122,0,0,0-.06-1.566c-1.67-1.614-2.46-1.5-3.2-.784l-1.16,1.157a0.645,0.645,0,0,1-.7.128,12.676,12.676,0,0,1-3.4-2.509l-0.09-.086a12.678,12.678,0,0,1-2.51-3.4,0.635,0.635,0,0,1,.13-0.693l1.16-1.167c0.71-.735.83-1.524-0.79-3.2a1.123,1.123,0,0,0-1.56-.059l-0.01.006a3.881,3.881,0,0,0-1.01,2.813,10.626,10.626,0,0,0,3.4,6.968c0.01,0,.01,0,0.01.006a14.1,14.1,0,0,0,1.37,1.193,0.629,0.629,0,0,1,.13.875,0.62,0.62,0,0,1-.87.124c-0.01,0-.01,0-0.01-0.006a0.017,0.017,0,0,0-.01,0,16.021,16.021,0,0,1-1.49-1.294v-0.006h0a11.864,11.864,0,0,1-3.78-7.853,5.061,5.061,0,0,1,1.39-3.714c0.01-.005.02-0.016,0.03-0.021l0.01-.016a2.378,2.378,0,0,1,3.3.117,5.818,5.818,0,0,1,1.53,2.3,2.571,2.571,0,0,1-.75,2.643h0l-0.84.847a12.485,12.485,0,0,0,2.06,2.659l0.08,0.085a12.621,12.621,0,0,0,2.66,2.057l0.85-.836v-0.006a2.57,2.57,0,0,1,2.64-.745,5.723,5.723,0,0,1,2.3,1.523,2.382,2.382,0,0,1,.12,3.3l-0.02.021a0.037,0.037,0,0,1-.02.022A5.043,5.043,0,0,1,1448.67,109Zm0.38-9.148a0.619,0.619,0,0,0,.42-0.773v0l-0.01-.027a3.591,3.591,0,0,0-2.54-2.515,0.626,0.626,0,0,0-.35,1.2c0.01,0,.01,0,0.01,0a2.362,2.362,0,0,1,1.68,1.663l0.01,0.032a0.623,0.623,0,0,0,.6.447,0.713,0.713,0,0,0,.18-0.026h0Zm3.28,0.784a6.915,6.915,0,0,0-6.86-6.959h-0.1a0.624,0.624,0,0,0,0,1.247h0.03a5.663,5.663,0,0,1,5.68,5.651v0.055a0.63,0.63,0,0,0,.62.629h0a0.624,0.624,0,0,0,.63-0.622v0h0Z" transform="translate(-1437 -93)"/>
</svg>
