<svg xmlns="http://www.w3.org/2000/svg" width="23.03" height="23" viewBox="0 0 23.03 23">
  <defs>
    <style>
      .cls-1 {
        fill: #8c7ae2;
        fill-rule: evenodd;
      }
    </style>
  </defs>
  <path id="Phone.svg" class="cls-1" d="M1046.79,3677.01h-0.05a13.425,13.425,0,0,1-5.14-1.2,0.9,0.9,0,0,1,.7-1.65h0.01a11.588,11.588,0,0,0,4.44,1.04h0.04a5.5,5.5,0,0,0,4-1.45h0.01a1.613,1.613,0,0,0-.08-2.25c-2.41-2.32-3.55-2.15-4.61-1.13l-1.68,1.66a0.91,0.91,0,0,1-.99.19,18.176,18.176,0,0,1-4.91-3.61l-0.12-.12a18.128,18.128,0,0,1-3.61-4.9,0.889,0.889,0,0,1,.18-0.99l1.67-1.68c1.03-1.06,1.2-2.19-1.13-4.6a1.623,1.623,0,0,0-2.25-.09l-0.01.01a5.554,5.554,0,0,0-1.46,4.05c0.02,3.22,1.85,6.97,4.9,10.01l0.01,0.01a19.066,19.066,0,0,0,1.98,1.72,0.9,0.9,0,0,1-1.08,1.43c-0.01,0-.01,0-0.01-0.01h-0.01a22.209,22.209,0,0,1-2.15-1.86v-0.01h0c-3.39-3.38-5.42-7.6-5.44-11.29a7.351,7.351,0,0,1,2-5.34,0.1,0.1,0,0,0,.04-0.03l0.02-.02a3.43,3.43,0,0,1,4.75.17,8.409,8.409,0,0,1,2.2,3.31,3.709,3.709,0,0,1-1.08,3.8h-0.01l-1.2,1.22a18.268,18.268,0,0,0,2.96,3.82l0.12,0.12a18.328,18.328,0,0,0,3.83,2.96l1.22-1.21h0a3.731,3.731,0,0,1,3.81-1.08,8.386,8.386,0,0,1,3.31,2.19,3.418,3.418,0,0,1,.17,4.74l-0.02.04a0.062,0.062,0,0,0-.04.03A7.3,7.3,0,0,1,1046.79,3677.01Zm0.55-13.16a0.885,0.885,0,0,0,.61-1.11h0l-0.02-.04a5.167,5.167,0,0,0-3.66-3.62,0.9,0.9,0,1,0-.49,1.73h0.01a3.214,3.214,0,0,1,1.55.88,3.336,3.336,0,0,1,.87,1.51l0.01,0.05a0.909,0.909,0,0,0,.86.64,0.746,0.746,0,0,0,.26-0.04h0Zm4.72,1.13a9.925,9.925,0,0,0-9.87-10h-0.14a0.9,0.9,0,0,0,0,1.79h0.04a8.158,8.158,0,0,1,8.18,8.12v0.08a0.909,0.909,0,0,0,.89.91h0.01a0.894,0.894,0,0,0,.89-0.9h0Z" transform="translate(-1030 -3654)"/>
</svg>
